<?xml version="1.0"?>
<svg xmlns="http://www.w3.org/2000/svg" id="Capa_1" enable-background="new 0 0 512 512" height="512px" viewBox="0 0 512 512" width="512px" class=""><g><g id="XMLID_1193_"><path id="XMLID_3103_" d="m10 54h360v448h-360z" fill="#f8f8f8" data-original="#F8F8F8" class=""/><path id="XMLID_3097_" d="m501.75 379.125c0 67.862-55.013 122.875-122.875 122.875s-122.875-55.013-122.875-122.875z" fill="#bedaff" data-original="#BEDAFF" class="active-path" style="fill:#EB7D16" data-old_color="#bedaff"/><path id="XMLID_3096_" d="m488.975 263.207c17.367 17.367 17.367 45.525 0 62.892s-45.525 17.367-62.892 0z" fill="#d5ea7a" data-original="#D5EA7A"/><circle id="XMLID_3094_" cx="352.958" cy="344.937" fill="#ffd88e" r="34.187" data-original="#FFD88E" class=""/><path id="XMLID_3093_" d="m364.287 208.098h55.589v55.589h-55.589z" fill="#ffd88e" transform="matrix(.707 -.707 .707 .707 -51.963 346.335)" data-original="#FFD88E" class=""/><path id="XMLID_2697_" d="m275.822 310.127c-7.295 0-13.555-5.199-14.894-12.37l-9.939-53.231c-2.902-15.541 9.023-29.899 24.833-29.899 15.81 0 27.735 14.358 24.833 29.899l-9.939 53.231c-1.339 7.171-7.599 12.37-14.894 12.37z" fill="#ff7a7a" data-original="#FF7A7A"/><g id="XMLID_225_"><path id="XMLID_625_" d="m501.75 369.125h-111.84c4.568-6.955 7.235-15.263 7.235-24.188 0-14.184-6.725-26.819-17.146-34.91v-32.767l5.01 5.01c1.953 1.952 4.512 2.929 7.071 2.929s5.118-.977 7.071-2.929l39.308-39.307c1.875-1.876 2.929-4.419 2.929-7.071s-1.054-5.195-2.929-7.071l-39.308-39.308c-1.876-1.875-4.419-2.929-7.071-2.929s-5.196 1.054-7.071 2.929l-5.01 5.01v-140.523c0-5.522-4.478-10-10-10h-31.926v-7.926c.001-19.891-16.181-36.074-36.073-36.074s-36.074 16.183-36.074 36.074v7.926h-39.852v-7.926c0-19.891-16.182-36.074-36.074-36.074s-36.074 16.183-36.074 36.074v7.926h-39.852v-7.926c0-19.891-16.182-36.074-36.074-36.074s-36.074 16.183-36.074 36.074v7.926h-31.926c-5.522 0-10 4.478-10 10v448c0 5.522 4.478 10 10 10h135.003c5.522 0 10-4.478 10-10s-4.478-10-10-10h-125.003v-428h74.074v7.926c0 8.863-7.211 16.074-16.074 16.074-5.522 0-10 4.478-10 10s4.478 10 10 10c19.892 0 36.074-16.183 36.074-36.074v-7.926h92v7.926c0 8.863-7.211 16.074-16.074 16.074-5.522 0-10 4.478-10 10s4.478 10 10 10c19.892 0 36.074-16.183 36.074-36.074v-7.926h92v7.926c0 8.863-7.211 16.074-16.074 16.074-5.522 0-10 4.478-10 10s4.478 10 10 10c19.892 0 36.074-16.183 36.074-36.074v-7.926h21.926v150.524l-14.297 14.297c-3.905 3.905-3.905 10.237 0 14.143l14.297 14.297v44.057c-2.294-.369-4.645-.568-7.042-.568-24.365 0-44.188 19.822-44.188 44.188 0 8.924 2.667 17.233 7.235 24.188h-60.005c-5.522 0-10 4.478-10 10 0 47.586 25.149 89.402 62.849 112.875h-73.849c-5.522 0-10 4.478-10 10s4.478 10 10 10h143.875c73.268 0 132.875-59.607 132.875-132.875 0-5.523-4.478-10.001-10-10.001zm-439.824-325.125v-7.926c0-8.863 7.211-16.074 16.074-16.074s16.074 7.211 16.074 16.074v7.926zm112 0v-7.926c0-8.863 7.211-16.074 16.074-16.074s16.074 7.211 16.074 16.074v7.926zm112 0v-7.926c0-8.863 7.211-16.074 16.074-16.074s16.074 7.211 16.074 16.074v7.926zm106.155 166.728 25.165 25.165-25.165 25.165-25.165-25.165zm-63.31 134.21c0-13.337 10.851-24.188 24.188-24.188s24.188 10.851 24.188 24.188-10.851 24.188-24.188 24.188-24.188-10.852-24.188-24.188zm50.104 147.062c-58.87 0-107.358-45.302-112.436-102.875h224.871c-5.077 57.573-53.565 102.875-112.435 102.875z" data-original="#000000" class="" style="fill:#000000"/><path id="XMLID_633_" d="m419.011 333.171c10.288 10.288 23.968 15.954 38.518 15.954s28.229-5.666 38.518-15.954 15.953-23.968 15.953-38.518-5.666-28.229-15.954-38.518c-3.906-3.904-10.236-3.904-14.143 0l-62.893 62.893c-3.905 3.906-3.905 10.238.001 14.143zm68.918-54.776c6.967 13.041 4.958 29.651-6.025 40.634-10.981 10.983-27.593 12.992-40.634 6.025z" data-original="#000000" class="" style="fill:#000000"/><path id="XMLID_636_" d="m275.822 192.127c-5.522 0-10 4.478-10 10v3.948c-6.629 1.955-12.598 5.832-17.127 11.284-6.72 8.092-9.467 18.663-7.536 29.003l9.939 53.229c2.222 11.899 12.619 20.535 24.724 20.535s22.502-8.636 24.724-20.534l9.939-53.23c1.931-10.34-.816-20.911-7.536-29.003-4.529-5.453-10.498-9.33-17.127-11.284v-3.948c0-5.523-4.477-10-10-10zm11.741 38.011c2.908 3.502 4.098 8.078 3.262 12.553l-9.939 53.231c-.455 2.437-2.585 4.205-5.063 4.205s-4.608-1.769-5.063-4.206l-9.939-53.23c-.836-4.476.354-9.051 3.262-12.553 2.909-3.502 7.188-5.511 11.741-5.511s8.83 2.009 11.739 5.511z" data-original="#000000" class="" style="fill:#000000"/><path id="XMLID_637_" d="m81.069 162.6c-1.859-1.87-4.439-2.93-7.069-2.93s-5.21 1.06-7.07 2.93c-1.86 1.86-2.93 4.44-2.93 7.07s1.069 5.2 2.93 7.07c1.86 1.859 4.44 2.93 7.07 2.93s5.21-1.07 7.069-2.93c1.86-1.87 2.931-4.44 2.931-7.07s-1.07-5.21-2.931-7.07z" data-original="#000000" class="" style="fill:#000000"/><path id="XMLID_638_" d="m212.074 159.667h-88.407c-5.522 0-10 4.478-10 10s4.478 10 10 10h88.407c5.522 0 10-4.478 10-10s-4.477-10-10-10z" data-original="#000000" class="" style="fill:#000000"/><path id="XMLID_639_" d="m81.069 234.04c-1.859-1.86-4.439-2.931-7.069-2.931s-5.21 1.07-7.07 2.931c-1.86 1.859-2.93 4.439-2.93 7.069 0 2.631 1.069 5.21 2.93 7.07s4.44 2.93 7.07 2.93 5.21-1.069 7.069-2.93c1.86-1.86 2.931-4.439 2.931-7.07 0-2.63-1.07-5.21-2.931-7.069z" data-original="#000000" class="" style="fill:#000000"/><path id="XMLID_640_" d="m212.074 231.111h-88.407c-5.522 0-10 4.478-10 10s4.478 10 10 10h88.407c5.522 0 10-4.478 10-10s-4.477-10-10-10z" data-original="#000000" class="" style="fill:#000000"/><path id="XMLID_641_" d="m81.069 305.479c-1.859-1.859-4.439-2.92-7.069-2.92s-5.21 1.061-7.07 2.92c-1.86 1.87-2.93 4.45-2.93 7.08s1.069 5.2 2.93 7.061c1.86 1.87 4.44 2.939 7.07 2.939s5.21-1.069 7.069-2.939c1.86-1.86 2.931-4.431 2.931-7.061s-1.07-5.209-2.931-7.08z" data-original="#000000" class="" style="fill:#000000"/><path id="XMLID_642_" d="m212.074 302.556h-88.407c-5.522 0-10 4.478-10 10s4.478 10 10 10h88.407c5.522 0 10-4.478 10-10s-4.477-10-10-10z" data-original="#000000" class="" style="fill:#000000"/><path id="XMLID_643_" d="m74 374c-2.63 0-5.21 1.069-7.07 2.93s-2.93 4.44-2.93 7.07 1.069 5.21 2.93 7.069c1.86 1.861 4.44 2.931 7.07 2.931s5.21-1.07 7.069-2.931c1.861-1.859 2.931-4.439 2.931-7.069s-1.07-5.21-2.931-7.07c-1.859-1.861-4.439-2.93-7.069-2.93z" data-original="#000000" class="" style="fill:#000000"/><path id="XMLID_644_" d="m212.074 374h-88.407c-5.522 0-10 4.478-10 10s4.478 10 10 10h88.407c5.522 0 10-4.478 10-10s-4.477-10-10-10z" data-original="#000000" class="" style="fill:#000000"/><path id="XMLID_645_" d="m190 492c-2.63 0-5.21 1.069-7.07 2.93s-2.93 4.44-2.93 7.07 1.069 5.21 2.93 7.069c1.86 1.86 4.44 2.931 7.07 2.931s5.21-1.07 7.069-2.931c1.861-1.859 2.931-4.439 2.931-7.069s-1.07-5.21-2.931-7.07c-1.859-1.861-4.439-2.93-7.069-2.93z" data-original="#000000" class="" style="fill:#000000"/></g></g></g> </svg>
