<?xml version="1.0"?>
<svg xmlns="http://www.w3.org/2000/svg" height="512px" viewBox="0 -93 479.63617 479" width="512px" class=""><g><path d="m431.519531 165.433594c11.625.003906 22.707031 4.925781 30.503907 13.550781 7.796874 8.628906 11.574218 20.152344 10.40625 31.71875v76.589844h-174.511719v-76.589844c-1.171875-11.570313 2.605469-23.097656 10.40625-31.722656 7.796875-8.628907 18.882812-13.550781 30.515625-13.546875h11.269531l6.5 14.738281c4.785156 11.511719 15.917969 19.105469 28.382813 19.359375 12.460937.253906 23.898437-6.882812 29.144531-18.1875l7.382812-15.910156zm0 0" fill="#00acea" data-original="#00ACEA" class="active-path" style="fill:#EB7D16" data-old_color="#00acea"/><path d="m423.367188 90.394531v18.117188c0 21.859375-17.71875 39.582031-39.578126 39.582031-21.859374 0-39.582031-17.722656-39.582031-39.582031 0 0 .011719-7.609375.042969-15.628907h.058594c15.058594-2.960937 20.019531-10.621093 25.558594-19.199218 11.449218 7.871094 28.730468 15.46875 53.5 16.710937zm0 0" fill="#00acea" data-original="#00ACEA" class="active-path" style="fill:#EB7D16" data-old_color="#00acea"/><path d="m369.867188 73.683594c-11.089844-7.601563-16.707032-15.449219-18.367188-18.011719 9.964844-14.054687 27.882812-20.046875 44.304688-14.816406 16.417968 5.230469 27.566406 20.484375 27.5625 37.71875v11.820312c-24.769532-1.242187-42.050782-8.839843-53.5-16.710937zm0 0" fill="#4b5d63" data-original="#4B5D63" class=""/><path d="m404.097656 27.273438c.007813 5.300781-2.101562 10.382812-5.859375 14.121093l-.109375.277344c-9.042968-3.5-19.058594-3.574219-28.152344-.199219l-.058593-.148437c-6.351563-6.417969-7.605469-16.300781-3.0625-24.101563 4.542969-7.804687 13.753906-11.589844 22.46875-9.238281 8.71875 2.351563 14.773437 10.257813 14.773437 19.289063zm0 0" fill="#d4e1f4" data-original="#D4E1F4" class="" style="fill:#FFB229" data-old_color="#d4e1f4"/><path d="m369.867188 73.683594c-5.539063 8.578125-10.5 16.238281-25.558594 19.199218h-.058594c.027344-8.558593.078125-17.589843.148438-18.261718.679687-6.824219 3.125-13.355469 7.101562-18.949219 1.660156 2.5625 7.277344 10.410156 18.367188 18.011719zm0 0" fill="#4b5d63" data-original="#4B5D63" class=""/><path d="m73.949219 196.261719 15.1875-19.308594h9.429687l16.410156 19.320313h.011719l15.828125-45.800782h9.992188c11.625 0 22.710937 4.917969 30.507812 13.546875 7.792969 8.625 11.574219 20.144531 10.402344 31.714844v91.558594h-174.511719v-91.558594c-1.167969-11.570313 2.617188-23.089844 10.414063-31.714844s18.878906-13.546875 30.507812-13.546875h11.269532zm0 0" fill="#00efd1" data-original="#00EFD1" class="" style="fill:#FFB229" data-old_color="#00efd1"/><path d="m132.660156 58.511719v35.042969c0 21.859374-17.722656 39.578124-39.582031 39.578124s-39.578125-17.71875-39.578125-39.578124v-3.339844c.769531-1.691406 13.488281-28.671875 39.808594-32.183594l.019531-.039062c11.320313 5.011718 24.75 6.800781 39.332031.519531zm0 0" fill="#00efd1" data-original="#00EFD1" class="" style="fill:#FFB229" data-old_color="#00efd1"/><path d="m132.660156 56.574219v1.9375c-14.582031 6.28125-28.011718 4.492187-39.332031-.519531-20.191406-8.929688-33.699219-28.097657-35.089844-30.140626.90625-.371093 1.871094-.558593 2.851563-.558593h42.296875c16.171875 0 29.273437 13.113281 29.273437 29.28125zm0 0" fill="#4b5d63" data-original="#4B5D63" class=""/><path d="m93.328125 57.992188-.019531.039062c-26.320313 3.511719-39.039063 30.492188-39.808594 32.183594v-55.332032c0-3.089843 1.875-5.871093 4.738281-7.03125 1.390625 2.042969 14.898438 21.210938 35.089844 30.140626zm0 0" fill="#4b5d63" data-original="#4B5D63" class=""/><g fill="#083863"><path d="m140.808594 143.472656h-9.992188c-2.984375 0-5.640625 1.890625-6.613281 4.714844l-11.824219 34.207031-5.96875-7.027343 6.769532-21.59375c.664062-2.128907.28125-4.445313-1.039063-6.238282-1.320313-1.796875-3.414063-2.855468-5.640625-2.855468h-25.273438c-2.226562 0-4.320312 1.058593-5.640624 2.851562-1.316407 1.796875-1.703126 4.113281-1.039063 6.238281l6.808594 21.75-4.738281 6.027344-10.546876-33.195313c-.925781-2.90625-3.621093-4.878906-6.671874-4.878906h-11.269532c-13.542968 0-26.457031 5.707032-35.578125 15.714844-9.121093 10.011719-13.601562 23.402344-12.34375 36.886719v91.21875c0 3.867187 3.136719 7 7 7h174.511719c3.867188 0 7-3.132813 7-7v-91.21875c1.261719-13.484375-3.214844-26.875-12.335938-36.886719-9.117187-10.011719-22.03125-15.714844-35.574218-15.714844zm-43.839844 15.210938-3.109375 9.917968-3.101563-9.917968zm77.785156 36.339844c-.023437.238281-.035156.472656-.035156.710937v84.558594h-160.511719v-84.558594c0-.234375-.011719-.46875-.035156-.703125-.96875-9.597656 2.167969-19.15625 8.640625-26.316406 6.46875-7.15625 15.667969-11.238282 25.316406-11.238282h6.148438l12.925781 40.675782c.714844 2.566406 2.824219 4.503906 5.441406 5 2.621094.496094 5.292969-.539063 6.894531-2.671875l13-16.523438h2.792969l14.3125 16.851563c1.628907 1.914062 4.160157 2.8125 6.632813 2.347656 2.46875-.464844 4.503906-2.214844 5.328125-4.59375l14.199219-41.085938h5c9.648437 0 18.84375 4.082032 25.3125 11.238282s9.605468 16.71875 8.632812 26.316406zm0 0" data-original="#083863" class="" style="fill:#000000" data-old_color="#083863"/><path d="m93.078125 140.132812c25.714844-.027343 46.550781-20.867187 46.582031-46.578124v-36.980469c-.023437-20.027344-16.246094-36.257813-36.273437-36.28125h-42.296875c-8.058594.007812-14.585938 6.535156-14.589844 14.589843v58.671876c-.003906 25.726562 20.851562 46.582031 46.578125 46.578124zm0-14c-17.996094.003907-32.585937-14.585937-32.578125-32.578124v-1.71875c2.597656-5.042969 13.136719-23.117188 32.050781-26.589844 6.722657 2.792968 13.921875 4.253906 21.203125 4.308594 4.003906-.011719 8-.480469 11.898438-1.398438v25.398438c-.019532 17.980468-14.589844 32.554687-32.574219 32.578124zm-32.578125-84.320312c4.773438 5.292969 10.074219 10.089844 15.816406 14.3125-5.898437 3.054688-11.246094 7.078125-15.816406 11.898438zm64.96875 11.898438c-9.585938 2.960937-19.421875 2.257812-29.308594-2.117188-9.746094-4.3125-17.878906-11.386719-23.527344-17.300781h30.753907c11.191406.015625 20.636719 8.320312 22.082031 19.417969zm0 0" data-original="#083863" class="" style="fill:#000000" data-old_color="#083863"/><path d="m431.519531 158.433594h-10c-2.726562 0-5.203125 1.582031-6.351562 4.054687l-7.378907 15.910157c-4.078124 8.789062-12.96875 14.335937-22.65625 14.140624-9.6875-.199218-18.34375-6.101562-22.0625-15.050781-.019531-.046875-.035156-.09375-.058593-.140625l-6.5-14.738281c-1.117188-2.539063-3.628907-4.175781-6.40625-4.175781h-11.269531c-13.542969-.003906-26.464844 5.703125-35.585938 15.714844-9.121094 10.015624-13.597656 23.410156-12.332031 36.894531v76.25c0 3.867187 3.132812 7 7 7h174.507812c3.867188 0 7-3.132813 7-7v-76.25c1.261719-13.484375-3.214843-26.875-12.332031-36.886719-9.121094-10.011719-22.035156-15.71875-35.574219-15.722656zm33.945313 51.566406c-.023438.230469-.035156.464844-.035156.699219v69.59375h-160.511719v-69.589844c0-.234375-.011719-.472656-.035157-.707031-.976562-9.601563 2.164063-19.164063 8.632813-26.324219 6.472656-7.160156 15.671875-11.242187 25.324219-11.238281h6.707031l4.628906 10.5c5.871094 14.046875 19.484375 23.304687 34.710938 23.597656 15.222656.296875 29.1875-8.425781 35.597656-22.238281l5.5-11.855469h5.535156c9.644531.003906 18.839844 4.089844 25.308594 11.246094 6.46875 7.160156 9.605469 16.722656 8.636719 26.320312zm0 0" data-original="#083863" class="" style="fill:#000000" data-old_color="#083863"/><path d="m383.789062 155.09375c25.710938-.03125 46.550782-20.867188 46.578126-46.582031v-29.9375c.007812-16.089844-8.296876-31.042969-21.957032-39.542969 5.457032-11.300781 2.402344-24.871094-7.371094-32.746094-9.773437-7.871094-23.683593-7.964844-33.5625-.222656-9.878906 7.742188-13.113281 21.269531-7.804687 32.644531-12.527344 7.585938-20.757813 20.617188-22.234375 35.1875-.054688.535157-.125 1.199219-.1875 18.960938-.03125 8.03125-.039062 15.648437-.039062 15.660156-.007813 25.726563 20.851562 46.582031 46.578124 46.578125zm0-14c-17.992187.003906-32.582031-14.578125-32.582031-32.570312 0 0 .007813-4.480469.023438-10.179688 10.488281-3.28125 16.269531-9.089844 20.648437-15.113281 12.835938 7.449219 27.75 12.015625 44.488282 13.652343v11.632813c-.019532 17.984375-14.59375 32.558594-32.578126 32.578125zm-32.410156-65.910156c.242188-2.300782.734375-4.570313 1.460938-6.769532 2.351562 2.453126 4.855468 4.75 7.5 6.886719-2.296875 3.390625-5.410156 6.144531-9.050782 8.011719.039063-6.109375.074219-7.710938.089844-8.128906zm64.988282 7.636718c-16.449219-1.796874-30.734376-6.796874-42.542969-14.910156-4.996094-3.382812-9.515625-7.425781-13.429688-12.019531 9.238281-9.53125 23.332031-12.503906 35.628907-7.519531 12.300781 4.984375 20.347656 16.929687 20.34375 30.203125zm-32.25-68.527343c7.164062.011719 12.96875 5.816406 12.980468 12.980469.003906 2.175781-.542968 4.316406-1.59375 6.21875-7.488281-1.949219-15.34375-2-22.859375-.148438-2.128906-4.023438-1.992187-8.867188.355469-12.765625s6.566406-6.285156 11.117188-6.285156zm0 0" data-original="#083863" class="" style="fill:#000000" data-old_color="#083863"/><path d="m218.039062 152.644531c2.734376 2.734375 7.167969 2.734375 9.898438 0 2.734375-2.734375 2.734375-7.167969 0-9.902343l-11.171875-11.167969 53.039063.121093h.011718c3.867188.003907 7.003906-3.125 7.011719-6.992187.003906-3.867187-3.128906-7.003906-6.992187-7.007813l-53.15625-.121093 11.257812-11.257813c2.734375-2.734375 2.734375-7.167968 0-9.902344-2.734375-2.734374-7.164062-2.734374-9.898438 0l-23.171874 23.171876c-.03125.03125-.0625.070312-.09375.097656-.125.128906-.246094.261718-.359376.402344-.046874.054687-.085937.109374-.125.164062-.101562.128906-.203124.253906-.285156.386719-.035156.046875-.0625.097656-.09375.148437-.089844.144532-.183594.289063-.261718.4375-.019532.039063-.039063.082032-.058594.121094-.082032.164062-.164063.328125-.234375.5-.015625.03125-.023438.0625-.035157.097656-.074218.179688-.140624.363282-.199218.546875-.011719.035157-.019532.074219-.03125.109375-.050782.179688-.097656.367188-.136719.550782-.015625.066406-.019531.132812-.03125.203124-.027344.15625-.054687.3125-.070313.476563-.015624.140625-.019531.285156-.023437.425781 0 .089844-.015625.175782-.015625.261719v.019531c0 .199219.015625.390625.03125.585938.09375 1.164062.484375 2.289062 1.128906 3.265625.007813.011719.011719.023437.019532.03125.253906.382812.542968.734375.867187 1.058593v.007813zm0 0" data-original="#083863" class="" style="fill:#000000" data-old_color="#083863"/><path d="m286.789062 189.464844c-.09375-1.164063-.484374-2.289063-1.128906-3.265625-.007812-.011719-.011718-.023438-.019531-.03125-.253906-.382813-.542969-.734375-.867187-1.058594v-.007813l-23.171876-23.160156c-2.730468-2.734375-7.164062-2.734375-9.898437 0s-2.734375 7.167969 0 9.902344l11.175781 11.167969-53.042968-.121094h-.019532c-3.863281-.003906-7 3.125-7.007812 6.992187-.003906 3.867188 3.128906 7.003907 6.992187 7.007813l53.15625.121094-11.257812 11.261719c-2.734375 2.734374-2.734375 7.164062 0 9.898437s7.164062 2.734375 9.898437 0l23.171875-23.167969c.03125-.035156.0625-.070312.097657-.105468.125-.128907.246093-.261719.363281-.402344.042969-.050782.082031-.109375.125-.164063.097656-.125.199219-.253906.285156-.382812.03125-.050781.058594-.101563.089844-.152344.089843-.144531.183593-.285156.261719-.4375.023437-.039063.039062-.078125.058593-.117187.085938-.164063.164063-.332032.238281-.5.011719-.035157.019532-.066407.035157-.101563.070312-.179687.136719-.359375.195312-.546875.007813-.035156.015625-.070312.027344-.105469.050781-.183593.097656-.367187.136719-.554687.015625-.066406.023437-.132813.03125-.199219.027344-.160156.054687-.316406.074218-.476563.011719-.144531.015626-.285156.019532-.429687 0-.085937.015625-.171875.015625-.261719v-.015625c-.007813-.195312-.019531-.390625-.035157-.585937zm0 0" data-original="#083863" class="" style="fill:#000000" data-old_color="#083863"/></g></g> </svg>
