<?xml version="1.0" standalone="no"?>
<!DOCTYPE svg PUBLIC "-//W3C//DTD SVG 20010904//EN"
 "http://www.w3.org/TR/2001/REC-SVG-20010904/DTD/svg10.dtd">
<svg version="1.0" xmlns="http://www.w3.org/2000/svg"
 width="838.000000pt" height="800.000000pt" viewBox="0 0 838.000000 800.000000"
 preserveAspectRatio="xMidYMid meet">

<g transform="translate(0.000000,800.000000) scale(0.100000,-0.100000)"
fill="#000000" stroke="none">
<path d="M3353 7945 c-28 -28 -32 -37 -24 -54 18 -32 13 -59 -14 -77 -22 -14
-25 -24 -26 -73 0 -31 -4 -65 -8 -76 -10 -24 10 -67 41 -89 14 -10 44 -16 78
-16 76 0 127 -16 176 -56 22 -19 45 -34 49 -34 29 0 383 -319 396 -357 2 -7
54 -65 114 -129 61 -65 120 -131 133 -148 28 -38 30 -76 3 -76 -23 0 -36 -16
-21 -25 5 -3 10 -10 10 -16 0 -12 -47 -12 -55 1 -3 5 -20 7 -38 4 -24 -4 -28
-3 -17 5 11 8 -2 11 -53 11 l-68 0 21 -30 22 -31 -27 7 c-21 5 -27 4 -23 -7 3
-8 14 -15 26 -17 33 -5 26 -22 -7 -18 -16 2 -39 13 -52 25 -28 26 -39 27 -40
4 0 -14 -2 -13 -9 5 -10 24 -46 42 -84 42 -13 0 -31 10 -39 23 -11 15 -16 17
-16 7 0 -15 43 -70 55 -70 3 0 1 7 -6 15 -9 11 -9 15 -1 15 6 0 15 -8 18 -17
4 -9 28 -46 55 -82 26 -35 46 -66 43 -69 -8 -9 -33 18 -50 55 -12 25 -29 40
-56 51 -21 8 -39 19 -39 23 0 12 -90 160 -112 185 -10 11 -18 25 -18 31 0 6
-12 18 -26 28 -25 16 -25 16 -13 -7 6 -13 18 -27 26 -31 7 -4 25 -31 39 -60
43 -85 106 -187 115 -187 5 0 9 -7 9 -16 0 -10 6 -14 14 -11 15 6 66 -42 66
-62 0 -7 11 -26 25 -43 14 -16 25 -39 24 -51 l0 -22 -16 23 c-8 12 -19 22 -24
22 -11 0 -4 -50 8 -58 6 -4 20 -28 31 -54 11 -27 25 -48 30 -48 5 0 12 -15 15
-33 3 -18 15 -54 27 -79 11 -25 20 -49 19 -54 -2 -5 3 -27 9 -49 7 -22 12 -61
12 -86 0 -44 18 -104 37 -122 4 -5 8 -12 9 -15 1 -12 15 -47 30 -73 7 -14 11
-29 7 -33 -4 -3 4 -17 17 -30 16 -18 21 -33 18 -56 -3 -17 -1 -33 3 -36 9 -5
42 41 45 63 4 26 13 43 24 43 14 0 13 -27 -1 -32 -8 -3 -5 -10 6 -21 21 -22
25 -19 31 25 3 18 10 51 16 73 5 22 11 53 13 69 2 15 8 33 14 39 6 6 11 20 11
31 0 14 3 17 11 9 8 -8 7 -19 -4 -39 -8 -16 -17 -53 -20 -83 -6 -54 -6 -54 13
-34 12 14 27 19 44 16 35 -7 33 -29 -4 -36 -32 -7 -40 -33 -18 -55 8 -8 8 -15
0 -25 -7 -8 -9 -17 -5 -21 4 -4 15 10 25 31 10 23 17 31 17 19 1 -16 3 -17 18
-5 15 12 16 12 8 -1 -8 -14 28 14 67 52 24 23 58 116 58 159 0 43 18 99 32 99
7 0 6 5 -1 13 -8 11 -6 18 10 33 12 10 28 33 36 49 7 17 38 64 68 105 30 41
62 89 71 105 9 17 29 41 44 55 15 14 35 41 43 60 8 19 39 60 67 90 64 67 148
174 132 169 -15 -5 -122 -109 -122 -118 0 -14 -144 -156 -157 -156 -8 0 -17
-5 -21 -11 -4 -6 -20 -18 -37 -26 -27 -13 -37 -14 -61 -9 -4 0 -1 8 6 16 7 9
10 18 7 21 -3 4 1 13 9 21 11 12 12 18 3 29 -10 13 -14 12 -29 -1 -22 -20 -30
-19 -30 4 0 27 -25 44 -52 35 -20 -6 -21 -5 -10 9 11 13 8 18 -17 36 -24 17
-32 33 -40 79 -6 31 -25 84 -41 117 -17 34 -30 64 -30 68 0 15 -63 143 -91
183 -16 23 -29 46 -29 51 0 4 -27 42 -60 83 -33 41 -60 79 -60 83 0 5 -26 36
-57 69 -32 32 -60 65 -62 71 -3 11 -74 86 -212 227 -25 25 -85 84 -134 131
-50 48 -114 112 -143 143 -29 31 -57 56 -62 56 -5 0 -35 16 -67 35 -32 19 -64
35 -71 35 -8 0 -30 -16 -49 -35z m172 -82 c-7 -17 -8 -17 -15 2 -9 24 -2 41
12 27 6 -6 7 -19 3 -29z m-15 -84 c0 -5 -4 -9 -10 -9 -5 0 -10 7 -10 16 0 8 5
12 10 9 6 -3 10 -10 10 -16z m180 -143 c0 -3 -4 -8 -10 -11 -5 -3 -10 -1 -10
4 0 6 5 11 10 11 6 0 10 -2 10 -4z m630 -620 c0 -3 -4 -8 -10 -11 -5 -3 -10
-1 -10 4 0 6 5 11 10 11 6 0 10 -2 10 -4z m-300 -400 c0 -11 -19 -15 -25 -6
-3 5 1 10 9 10 9 0 16 -2 16 -4z m0 -51 c0 -9 -6 -12 -15 -9 -8 4 -15 10 -15
15 0 5 7 9 15 9 8 0 15 -7 15 -15z m431 -42 c12 -15 12 -16 -4 -10 -10 4 -23
7 -28 7 -5 0 -9 5 -9 10 0 16 26 12 41 -7z m-451 -3 c0 -5 -2 -10 -4 -10 -3 0
-8 5 -11 10 -3 6 -1 10 4 10 6 0 11 -4 11 -10z m603 -75 c3 -19 0 -25 -14 -25
-15 0 -19 8 -19 36 0 30 2 34 14 25 8 -6 16 -23 19 -36z m-579 0 c7 -28 6 -29
-10 -13 -10 10 -14 23 -10 34 8 21 11 17 20 -21z m66 -20 c7 -8 8 -15 2 -15
-5 0 -15 7 -22 15 -7 8 -8 15 -2 15 5 0 15 -7 22 -15z m-70 -47 c0 -11 7 -18
19 -18 21 0 51 -25 51 -43 0 -6 -6 -3 -13 7 -8 10 -25 19 -39 19 -19 0 -28 7
-39 36 -8 20 -16 41 -18 46 -2 6 6 1 18 -9 11 -11 21 -27 21 -38z m635 12 c4
-6 -5 -10 -19 -10 -14 0 -26 -5 -26 -11 0 -5 -4 -7 -10 -4 -13 8 10 34 32 35
9 0 20 -4 23 -10z m-209 -34 c20 -21 17 -28 -6 -14 -11 7 -20 16 -20 20 0 12
10 9 26 -6z m319 -6 c-3 -5 -13 -10 -21 -10 -8 0 -14 5 -14 10 0 6 9 10 21 10
11 0 17 -4 14 -10z m-125 -15 c0 -9 -6 -12 -15 -9 -20 8 -30 -22 -14 -44 12
-16 12 -16 -5 0 -24 22 -14 68 14 68 11 0 20 -7 20 -15z m-583 -87 c-3 -7 -5
-2 -5 12 0 14 2 19 5 13 2 -7 2 -19 0 -25z m408 -21 c-4 -8 -16 -18 -27 -21
-20 -5 -20 -4 3 18 27 26 32 27 24 3z m-105 -60 c0 -6 -9 -1 -20 11 -11 12
-20 24 -20 28 0 4 9 -1 20 -11 11 -10 20 -23 20 -28z m70 -63 c0 -14 -3 -14
-15 -4 -8 7 -15 14 -15 16 0 2 7 4 15 4 8 0 15 -7 15 -16z m-230 -85 c0 -5 -4
-9 -10 -9 -5 0 -10 7 -10 16 0 8 5 12 10 9 6 -3 10 -10 10 -16z m60 -30 c0 -6
-4 -7 -10 -4 -5 3 -10 11 -10 16 0 6 5 7 10 4 6 -3 10 -11 10 -16z m28 -45
c32 -9 27 -24 -8 -24 -20 0 -30 5 -30 15 0 17 4 18 38 9z m-71 -178 c-4 -9
-11 -16 -16 -16 -15 0 -23 33 -9 41 17 11 32 -5 25 -25z"/>
<path d="M3832 6771 c2 -8 11 -18 19 -21 8 -4 25 -12 37 -19 13 -7 26 -10 29
-7 11 10 -19 36 -41 36 -12 0 -28 6 -35 13 -11 10 -13 9 -9 -2z"/>
<path d="M3861 6579 c2 -29 14 -60 24 -60 17 1 13 40 -6 57 -15 13 -19 14 -18
3z"/>
<path d="M4660 6520 c0 -5 5 -10 11 -10 5 0 7 5 4 10 -3 6 -8 10 -11 10 -2 0
-4 -4 -4 -10z"/>
<path d="M4430 5680 c0 -5 4 -10 9 -10 6 0 13 5 16 10 3 6 -1 10 -9 10 -9 0
-16 -4 -16 -10z"/>
<path d="M4376 5642 c-2 -4 -1 -14 5 -22 7 -12 9 -10 9 8 0 23 -5 28 -14 14z"/>
<path d="M4216 5165 c4 -8 10 -15 15 -15 4 0 6 7 3 15 -4 8 -10 15 -15 15 -4
0 -6 -7 -3 -15z"/>
<path d="M4135 5150 c-3 -5 -1 -10 4 -10 6 0 11 5 11 10 0 6 -2 10 -4 10 -3 0
-8 -4 -11 -10z"/>
<path d="M4137 4632 c-10 -10 -17 -28 -17 -40 0 -11 -16 -58 -36 -102 -19 -45
-33 -84 -31 -87 8 -7 47 16 47 27 0 6 6 10 14 10 34 0 74 88 47 104 -4 3 -6
28 -3 56 5 55 3 59 -21 32z"/>
<path d="M4191 4372 c-19 -37 -41 -80 -49 -96 -8 -16 -16 -49 -16 -73 -1 -24
-6 -43 -12 -43 -17 0 -33 22 -27 39 3 12 1 11 -11 -3 -9 -11 -17 -16 -18 -10
-1 5 -4 -18 -7 -51 -6 -59 -7 -60 -36 -60 -26 0 -30 4 -32 32 -2 18 2 35 7 38
6 3 10 16 10 28 0 16 -7 10 -24 -23 -24 -49 -24 -52 11 -203 17 -75 41 -100
107 -112 34 -7 41 -5 61 21 l23 29 24 -22 c19 -18 23 -31 21 -64 -1 -23 -4
-48 -7 -55 -5 -13 21 -39 67 -67 20 -13 32 -15 46 -7 17 9 19 18 14 65 -5 47
-3 55 11 55 9 0 16 8 16 20 0 11 9 25 20 32 14 9 20 24 20 51 0 30 5 40 19 44
10 2 24 17 31 31 6 15 18 39 25 53 10 21 10 29 -1 44 -8 10 -14 29 -14 42 0
13 -4 23 -10 23 -5 0 -10 13 -10 29 0 22 -6 31 -30 41 -17 7 -41 26 -55 41
-13 16 -30 29 -38 29 -26 0 -73 30 -87 54 -7 15 -10 36 -6 53 11 48 11 56 1
59 -5 2 -25 -26 -44 -64z"/>
<path d="M4476 4234 c-12 -18 -15 -29 -8 -36 7 -7 15 -1 26 20 9 17 16 33 16
37 0 13 -16 2 -34 -21z"/>
<path d="M4485 4000 c-7 -12 3 -50 14 -50 4 0 6 14 3 30 -5 32 -7 36 -17 20z"/>
<path d="M3977 3854 c-10 -11 -8 -82 2 -88 12 -8 26 73 14 85 -5 5 -12 6 -16
3z"/>
<path d="M4038 3553 c-20 -5 -23 -44 -11 -154 7 -62 7 -63 16 -29 7 30 19 192
14 189 -1 -1 -10 -3 -19 -6z"/>
<path d="M4235 3536 c-18 -13 -18 -14 3 -43 14 -20 18 -34 11 -44 -12 -20 -11
-122 2 -156 15 -38 28 -136 20 -148 -3 -5 -6 -19 -7 -30 -1 -11 -5 -28 -9 -37
-5 -13 -3 -18 8 -18 17 0 23 14 33 83 3 26 10 47 14 47 4 0 11 20 14 45 5 29
14 49 27 55 30 16 23 37 -21 62 -33 18 -40 28 -37 46 3 14 -2 26 -12 32 -14 8
-13 11 7 32 29 31 28 42 -3 34 -14 -4 -25 -2 -25 3 0 16 29 33 46 27 14 -5 15
-4 4 9 -15 19 -50 19 -75 1z"/>
<path d="M4213 3024 c-24 -17 -21 -39 7 -54 15 -8 18 -5 18 30 0 22 0 40 -1
39 -1 0 -12 -7 -24 -15z"/>
<path d="M4003 1480 c-9 -16 -24 -30 -31 -30 -8 0 -12 -6 -9 -15 4 -8 2 -17
-3 -20 -5 -3 -21 -28 -36 -55 -15 -27 -33 -51 -41 -54 -8 -3 -11 -1 -8 4 3 6
2 10 -4 10 -12 0 -33 -35 -25 -43 3 -3 -4 -15 -15 -26 -25 -25 -27 -41 -6 -41
8 0 15 -5 15 -10 0 -6 -6 -10 -12 -9 -42 5 -54 -3 -76 -51 -13 -28 -24 -65
-25 -83 -2 -17 -11 -44 -21 -59 -10 -15 -15 -32 -11 -37 3 -6 -10 -35 -30 -66
-19 -30 -35 -60 -35 -66 0 -5 -7 -12 -15 -15 -8 -4 -15 -11 -15 -18 0 -6 -13
-27 -29 -47 -16 -19 -36 -50 -44 -69 -8 -19 -44 -66 -80 -105 -103 -109 -108
-115 -105 -133 2 -10 -3 -16 -11 -14 -7 1 -18 -3 -25 -11 -19 -22 -104 -87
-114 -87 -6 0 -12 -4 -14 -8 -5 -13 -91 -69 -113 -75 -11 -3 -3 -5 19 -6 21 0
86 -10 145 -21 58 -11 139 -24 178 -30 40 -6 103 -16 140 -22 46 -7 154 -9
342 -4 313 7 454 0 981 -53 41 -5 152 -16 245 -25 94 -9 231 -24 305 -32 313
-37 520 -50 548 -35 33 17 18 31 -34 31 -77 0 -290 39 -391 71 -137 44 -273
105 -308 139 -16 16 -42 33 -57 39 -17 6 -28 18 -28 29 0 10 -24 45 -53 78
-29 32 -65 77 -82 99 -16 22 -50 65 -77 96 -26 31 -48 67 -48 79 0 13 -8 24
-20 27 -11 3 -20 10 -20 15 0 5 -24 33 -53 62 -29 28 -52 57 -49 64 2 7 -5 12
-17 12 -27 0 -26 4 5 35 33 34 30 81 -11 155 -17 30 -34 62 -38 70 -20 41 -39
68 -72 105 -86 98 -110 129 -110 143 0 20 -36 42 -42 26 -3 -8 -16 -6 -43 7
-21 11 -44 19 -50 19 -5 0 -10 4 -10 9 0 6 16 3 35 -5 41 -17 53 -18 38 -3 -6
6 -10 17 -9 23 2 6 1 8 -1 4 -9 -16 -31 -7 -49 19 l-18 28 -13 -32 c-9 -22
-18 -31 -28 -27 -8 4 -15 10 -15 15 0 5 -20 9 -45 9 -25 0 -45 3 -45 8 0 4
-14 8 -30 9 -17 1 -30 -2 -30 -6 0 -13 -69 -21 -96 -10 -19 7 -24 14 -19 29
10 31 -12 24 -32 -10z m482 -110 c3 -5 1 -10 -4 -10 -6 0 -11 5 -11 10 0 6 2
10 4 10 3 0 8 -4 11 -10z m125 -780 c0 -5 -7 -10 -15 -10 -8 0 -15 5 -15 10 0
6 7 10 15 10 8 0 15 -4 15 -10z"/>
<path d="M4317 1476 c-4 -10 -1 -13 8 -9 8 3 12 9 9 14 -7 12 -11 11 -17 -5z"/>
<path d="M3872 1369 c-10 -15 -9 -19 2 -19 21 0 40 26 23 33 -7 3 -19 -4 -25
-14z"/>
<path d="M3366 973 c-12 -12 -5 -23 14 -23 11 0 20 4 20 9 0 11 -26 22 -34 14z"/>
<path d="M4765 830 c3 -5 11 -10 16 -10 6 0 7 5 4 10 -3 6 -11 10 -16 10 -6 0
-7 -4 -4 -10z"/>
<path d="M4960 674 c0 -8 9 -14 20 -14 11 0 20 4 20 9 0 5 -9 11 -20 14 -13 3
-20 0 -20 -9z"/>
</g>
</svg>
